<svg xmlns="http://www.w3.org/2000/svg" viewBox="0 0 900 640" preserveAspectRatio="xMidYMid slice" role="img" aria-label="Bookshelf">
  <rect width="900" height="640" fill="#1a1a1a"/>
  <g opacity=".85">
    <rect x="0"   y="70"  width="900" height="10" fill="#3b2f24"/>
    <rect x="0"   y="250" width="900" height="10" fill="#3b2f24"/>
    <rect x="0"   y="430" width="900" height="10" fill="#3b2f24"/>
    <rect x="0"   y="610" width="900" height="10" fill="#3b2f24"/>
  </g>
  <g>
    <rect x="30"  y="90"  width="26" height="160" fill="#6b3f2e"/>
    <rect x="62"  y="100" width="20" height="150" fill="#8d6b3a"/>
    <rect x="88"  y="86"  width="30" height="164" fill="#4a5c6b"/>
    <rect x="124" y="104" width="22" height="146" fill="#7d3140"/>
    <rect x="152" y="92"  width="28" height="158" fill="#5c6b4a"/>
    <rect x="300" y="96"  width="24" height="154" fill="#8d6b3a"/>
    <rect x="330" y="88"  width="30" height="162" fill="#6b3f2e"/>
    <rect x="366" y="106" width="20" height="144" fill="#4a5c6b"/>
    <rect x="600" y="94"  width="26" height="156" fill="#7d3140"/>
    <rect x="632" y="86"  width="22" height="164" fill="#5c6b4a"/>

    <rect x="40"  y="270" width="28" height="160" fill="#4a5c6b"/>
    <rect x="74"  y="282" width="20" height="148" fill="#7d3140"/>
    <rect x="200" y="268" width="30" height="162" fill="#8d6b3a"/>
    <rect x="236" y="286" width="22" height="144" fill="#6b3f2e"/>
    <rect x="500" y="274" width="26" height="156" fill="#5c6b4a"/>
    <rect x="532" y="266" width="24" height="164" fill="#4a5c6b"/>
    <rect x="760" y="280" width="28" height="150" fill="#8d6b3a"/>

    <rect x="120" y="450" width="26" height="160" fill="#7d3140"/>
    <rect x="152" y="462" width="22" height="148" fill="#5c6b4a"/>
    <rect x="420" y="448" width="30" height="162" fill="#6b3f2e"/>
    <rect x="456" y="466" width="20" height="144" fill="#4a5c6b"/>
    <rect x="700" y="454" width="26" height="156" fill="#8d6b3a"/>
  </g>
  <rect width="900" height="640" fill="rgba(0,0,0,.35)"/>
</svg>
